<?xml version="1.0" encoding="UTF-8" standalone="no"?><!DOCTYPE svg PUBLIC "-//W3C//DTD SVG 1.1//EN" "http://www.w3.org/Graphics/SVG/1.1/DTD/svg11.dtd"><svg width="100%" height="100%" viewBox="0 0 417 417" version="1.1" xmlns="http://www.w3.org/2000/svg" xmlns:xlink="http://www.w3.org/1999/xlink" xml:space="preserve" style="fill-rule:evenodd;clip-rule:evenodd;stroke-linejoin:round;stroke-miterlimit:1.41421;"><g><path d="M190.971,100c-43.409,0 -86.804,5.425 -86.804,43.396l0,103.092c0.025,20.82 17.15,37.945 37.971,37.97l-16.275,16.275l0,5.425l24.204,0l21.7,-21.7l40.904,0l21.708,21.7l21.7,0l0,-5.425l-16.275,-16.275c20.821,-0.025 37.946,-17.15 37.971,-37.97l0,-103.092c0,-37.971 -38.846,-43.396 -86.804,-43.396l0,0Zm-48.833,162.763c-9,0 -16.275,-7.275 -16.275,-16.275c0,-9.013 7.275,-16.284 16.275,-16.284c9.012,0 16.287,7.271 16.287,16.284c0,9 -7.275,16.275 -16.287,16.275Zm37.983,-75.959l-54.258,0l0,-43.408l54.258,0l0,43.408Zm21.7,0l0,-43.408l54.258,0l0,43.408l-54.258,0l0,0Zm37.983,75.959c-0.008,0 -0.016,0 -0.025,0c-8.921,0 -16.262,-7.342 -16.262,-16.263c0,-0.004 0,-0.008 0,-0.012c0,-9.013 7.275,-16.284 16.287,-16.284c9,0 16.275,7.271 16.275,16.284c0,9 -7.275,16.275 -16.275,16.275l0,0Z" style="fill:#f2f2f2;fill-rule:nonzero;"/><rect x="0" y="0" width="416.667" height="416.667" style="fill:none;"/></g></svg>