<svg height="24" viewBox="0 0 24 24" width="24" xmlns="http://www.w3.org/2000/svg">
    <g>
      <circle cx="12" cy="12" r="11.446" fill="#ffffff" stroke="#4c4c4c" stroke-width=".75"/>
      <path d="M12 3.525c-3.569 0-7.137.446-7.137 3.568v8.476a3.126 3.126 0 0 0 3.122 3.122l-1.338 1.338v.446h1.99l1.784-1.784h3.363l1.785 1.784h1.784v-.446l-1.338-1.338a3.126 3.126 0 0 0 3.122-3.122V7.093c0-3.122-3.194-3.568-7.137-3.568zM7.985 16.907c-.74 0-1.338-.598-1.338-1.338 0-.741.598-1.339 1.338-1.339.741 0 1.339.598 1.339 1.339 0 .74-.598 1.338-1.339 1.338zm3.123-6.245H6.647V7.093h4.461v3.569zm1.784 0V7.093h4.461v3.569h-4.461zm3.123 6.245a1.337 1.337 0 0 1-1.339-1.338c0-.741.598-1.339 1.339-1.339.74 0 1.338.598 1.338 1.339 0 .74-.598 1.338-1.338 1.338z" fill="#202A25" fill-rule="nonzero"/>
      <path fill="none" d="M0 0h24v24H0z"/>
    </g>
</svg>
